<svg xmlns="http://www.w3.org/2000/svg" xmlns:xlink="http://www.w3.org/1999/xlink" viewBox="0 0 166.51 166.51"><defs><style>.cls-1{fill:url(#Degradado_ETSA);}.cls-2{fill:url(#Degradado_ETSA-2);}.cls-3{fill:url(#Degradado_ETSA-3);}</style><linearGradient id="Degradado_ETSA" x1="38.65" y1="84.72" x2="129.83" y2="84.72" gradientUnits="userSpaceOnUse"><stop offset="0" stop-color="#eda218"/><stop offset="0.7" stop-color="#00a5c8"/><stop offset="1" stop-color="#1b3f60"/></linearGradient><linearGradient id="Degradado_ETSA-2" x1="17.08" y1="84.94" x2="148.79" y2="84.94" xlink:href="#Degradado_ETSA"/><linearGradient id="Degradado_ETSA-3" x1="0" y1="83.25" x2="166.51" y2="83.25" xlink:href="#Degradado_ETSA"/></defs><title>icono_medicina_nuclear</title><g id="Capa_2" data-name="Capa 2"><g id="Diseño"><polygon class="cls-1" points="96.39 80.07 87.92 80.07 87.92 71.61 76.08 71.61 76.08 80.07 67.62 80.07 67.62 89.37 76.08 89.37 76.08 97.83 87.92 97.83 87.92 89.37 96.39 89.37 96.39 80.07"/><path class="cls-2" d="M128.77,65.61c-2.48-1-5.13-1.82-7.91-2.6.72-2.8,1.29-5.52,1.71-8.15,2.15-13.66-.23-23.25-6.7-27a12.69,12.69,0,0,0-6.43-1.64c-7.53,0-17.05,5.59-26.65,15-2.1-2.06-4.2-4-6.31-5.65-10.75-8.7-20.25-11.43-26.72-7.69-4.16,2.4-6.69,7.31-7.32,14.19a2.1,2.1,0,1,0,4.19.38c.35-3.81,1.54-8.8,5.24-10.93,4.79-2.77,12.81-.1,22,7.32,2,1.62,4,3.42,6,5.39A136.12,136.12,0,0,0,68,59,135.21,135.21,0,0,0,48.82,62a76.33,76.33,0,0,1-2.1-11.44,2.1,2.1,0,1,0-4.18.41,80.39,80.39,0,0,0,2.22,12.09c-2.69.76-5.25,1.6-7.65,2.53-12.91,5-20,11.82-20,19.3s7.11,14.33,20,19.3c2.48,1,5.13,1.82,7.91,2.6-.72,2.8-1.29,5.52-1.71,8.15-2.15,13.66.23,23.25,6.7,27a12.69,12.69,0,0,0,6.43,1.64c7.45,0,16.83-5.47,26.32-14.72,2,2,4.07,3.81,6.11,5.46,7.61,6.16,14.59,9.32,20.31,9.32A12.63,12.63,0,0,0,115.6,142c6.48-3.74,8.86-13.32,6.7-27-.41-2.62-1-5.35-1.71-8.15a80.77,80.77,0,0,0,11.83-4.19,2.1,2.1,0,0,0-1.74-3.83,76.71,76.71,0,0,1-11.22,4,135.25,135.25,0,0,0-6.72-17.6,135.85,135.85,0,0,0,7-18.2c15.6,4.37,24.84,11.27,24.84,17.88,0,4.27-3.73,7.8-6.85,10a2.1,2.1,0,1,0,2.42,3.43c5.65-4,8.63-8.63,8.63-13.44,0-7.48-7.11-14.33-20-19.3ZM109.43,30.44a8.54,8.54,0,0,1,4.33,1.08c4.8,2.77,6.49,11,4.65,22.69-.39,2.5-.94,5.09-1.62,7.75a135.91,135.91,0,0,0-19.2-3A135.56,135.56,0,0,0,85.71,44.29q1.12-1.1,2.23-2.13c8.2-7.55,15.83-11.71,21.48-11.71ZM82.78,47.3a127.49,127.49,0,0,1,9.34,11.24q-4.53-.25-9.18-.25c-3.2,0-6.37.09-9.49.27A130,130,0,0,1,82.78,47.3Zm0,75.56a127.26,127.26,0,0,1-9.66-11.62c3.23.19,6.51.29,9.83.29s6.37-.09,9.49-.27a129.28,129.28,0,0,1-9.66,11.61Zm.17-15.54c-4.52,0-8.85-.17-13-.5-2.32-3.38-4.56-6.94-6.7-10.64s-4-7.32-5.79-11c1.82-3.83,3.84-7.68,6.05-11.51S67.93,66.4,70.3,63c4-.31,8.25-.47,12.64-.47s8.39.16,12.33.45c2.36,3.44,4.65,7.06,6.82,10.82s4.21,7.64,6,11.45c-1.74,3.63-3.67,7.27-5.76,10.9s-4.41,7.29-6.76,10.72c-4.12.32-8.36.49-12.65.49Zm-18.39-1a125.61,125.61,0,0,1-14.35-2.47,127,127,0,0,1,5-13.67q2.06,4.07,4.39,8.12T64.55,106.3Zm.33-42.83q-2.57,3.92-5,8.12t-4.67,8.67A128.91,128.91,0,0,1,49.94,66a125.64,125.64,0,0,1,14.94-2.57ZM21.29,84.91c0-6.58,9.14-13.44,24.59-17.81a137.16,137.16,0,0,0,7,18.12,135.17,135.17,0,0,0-6.7,17.57C30.53,98.42,21.29,91.52,21.29,84.91Zm35.15,54.46a8.54,8.54,0,0,1-4.33-1.08c-4.8-2.77-6.49-11-4.65-22.69.39-2.5.94-5.09,1.62-7.75a135.17,135.17,0,0,0,18.54,3,135.46,135.46,0,0,0,12.2,15q-.95.93-1.89,1.8c-8.2,7.55-15.83,11.71-21.48,11.71Zm61.71-23.7c1.84,11.65.14,19.92-4.65,22.69s-12.81.1-22-7.32c-1.93-1.56-3.87-3.3-5.8-5.18a135.55,135.55,0,0,0,12.21-15,137.25,137.25,0,0,0,18.6-2.94C117.21,110.57,117.75,113.17,118.15,115.67Zm-2.75-11.81A129,129,0,0,1,101,106.31q2.56-3.9,5-8.09,2.32-4,4.37-8.06a127,127,0,0,1,5,13.7Zm-5-23.58q-2.17-4.31-4.65-8.62t-5.07-8.22a126.35,126.35,0,0,1,15,2.54A127.69,127.69,0,0,1,110.37,80.28Z"/><path class="cls-3" d="M83.25,0a83.25,83.25,0,1,0,83.25,83.25A83.25,83.25,0,0,0,83.25,0Zm0,159.31a76.06,76.06,0,1,1,76.06-76.06A76.06,76.06,0,0,1,83.25,159.31Z"/></g></g></svg>